<svg width="112" height="168" viewBox="0 0 112 168" fill="none" xmlns="http://www.w3.org/2000/svg">
<path d="M51.681 111.587L25.375 168L18.606 149.394L0 156.17L24.619 103.383C29.365 104.895 32.578 104.517 37.562 104.517C42.77 108.108 45.066 110.425 51.681 111.587ZM74.445 104.524C69.279 108.066 67.102 110.341 60.487 111.552L86.8 168L93.569 149.394L112 156.17L87.535 103.327C82.733 104.881 79.513 104.524 74.445 104.524ZM56 21C40.565 21 28 33.565 28 49C28 64.435 40.565 77 56 77C71.442 77 84 64.442 84 49C84 33.558 71.442 21 56 21ZM104.482 57.946C104.839 58.968 105 60.018 105 61.061C105 64.204 103.446 67.242 100.695 69.153C91.903 75.243 93.065 73.71 89.761 83.622C88.375 87.759 84.371 90.552 79.863 90.552H79.835C68.992 90.517 70.882 89.936 62.139 96.075C60.305 97.356 58.156 98 56 98C53.844 98 51.695 97.356 49.868 96.075C41.125 89.929 43.008 90.517 32.172 90.552H32.144C27.629 90.552 23.632 87.759 22.253 83.622C18.942 73.703 20.076 75.236 11.319 69.153C8.554 67.235 7 64.197 7 61.054C7 60.018 7.168 58.968 7.518 57.946C10.899 48.069 10.906 49.973 7.518 40.061C7.168 39.032 7 37.982 7 36.946C7 33.796 8.554 30.765 11.312 28.847C20.069 22.771 18.935 24.311 22.246 14.378C23.625 10.241 27.629 7.448 32.137 7.448H32.165C42.98 7.483 41.062 8.113 49.861 1.918C51.695 0.644 53.844 0 56 0C58.156 0 60.305 0.637 62.132 1.918C70.875 8.064 68.992 7.483 79.828 7.448H79.856C84.371 7.448 88.368 10.241 89.754 14.378C93.065 24.29 91.903 22.757 100.688 28.847C103.446 30.765 105 33.796 105 36.939C105 37.975 104.839 39.032 104.482 40.054C101.101 49.931 101.087 48.027 104.482 57.946ZM91 49C91 29.673 75.334 14 56 14C36.673 14 21 29.673 21 49C21 68.327 36.673 84 56 84C75.334 84 91 68.334 91 49Z" fill="#2C5B44"/>
</svg>
