<svg width="46" height="34" viewBox="0 0 46 34" fill="none" xmlns="http://www.w3.org/2000/svg">
<g clip-path="url(#clip0_281_21)">
<path d="M24.0399 9.35498C22.0952 9.35498 20.3813 10.525 19.832 12.225C19.2497 11.985 18.6344 11.855 17.9972 11.855C16.8317 11.855 15.7139 12.2764 14.8897 13.0266C14.0655 13.7767 13.6025 14.7941 13.6025 15.855C13.6051 16.7408 13.9299 17.6009 14.5262 18.3011C15.1225 19.0012 15.9567 19.5019 16.8985 19.725V26.855H31.1812V19.725C33.1149 19.265 34.4772 17.675 34.4772 15.855C34.4772 14.7941 34.0142 13.7767 33.19 13.0266C32.3659 12.2764 31.2481 11.855 30.0825 11.855C29.4453 11.855 28.8301 11.985 28.2478 12.225C27.6984 10.525 25.9845 9.35498 24.0399 9.35498ZM23.4905 18.355H24.5892V25.355H23.4905V18.355ZM20.1945 20.355H21.2932V25.355H20.1945V20.355ZM26.7865 20.355H27.8852V25.355H26.7865V20.355ZM16.8985 27.855V28.855C16.8985 29.1202 17.0143 29.3746 17.2203 29.5621C17.4264 29.7496 17.7058 29.855 17.9972 29.855H30.0825C30.3739 29.855 30.6534 29.7496 30.8594 29.5621C31.0655 29.3746 31.1812 29.1202 31.1812 28.855V27.855H16.8985Z" fill="white"/>
</g>
<defs>
<clipPath id="clip0_281_21">
<rect width="21.0519" height="22.5806" fill="white" transform="translate(13 10)"/>
</clipPath>
</defs>
</svg>
