<svg width="37" height="25" viewBox="0 0 37 25" fill="none" xmlns="http://www.w3.org/2000/svg">
<g clip-path="url(#clip0_281_54)">
<path d="M23.8799 12.9289C22.8029 11.8398 21.521 11.0335 20.1224 10.5454C21.6204 9.50199 22.6045 7.75578 22.6045 5.78125C22.6045 2.59348 20.0401 0 16.888 0C13.7359 0 11.1715 2.59348 11.1715 5.78125C11.1715 7.75578 12.1556 9.50199 13.6536 10.5454C12.255 11.0335 10.9731 11.8398 9.89614 12.9289C8.02855 14.8177 7 17.3289 7 20H8.545C8.545 15.3475 12.2876 11.5625 16.888 11.5625C21.4884 11.5625 25.231 15.3475 25.231 20H26.776C26.776 17.3289 25.7475 14.8177 23.8799 12.9289ZM16.888 10C14.5878 10 12.7165 8.1075 12.7165 5.78125C12.7165 3.455 14.5878 1.5625 16.888 1.5625C19.1882 1.5625 21.0595 3.455 21.0595 5.78125C21.0595 8.1075 19.1882 10 16.888 10Z" fill="#C8D6C2"/>
</g>
<defs>
<clipPath id="clip0_281_54">
<rect width="19.776" height="20" fill="white" transform="translate(7)"/>
</clipPath>
</defs>
</svg>
