<svg width="21" height="24" viewBox="0 0 21 24" fill="none" xmlns="http://www.w3.org/2000/svg">
<g clip-path="url(#clip0_3_505)">
<path d="M3.98825 7L8.10162 2.298C8.27575 2.1 8.50412 2 8.7325 2C9.26887 2 9.625 2.505 9.625 3.029C9.625 3.279 9.5445 3.533 9.36337 3.74L6.51087 7H3.98825ZM14.4891 7H17.0117L12.8984 2.298C12.7242 2.1 12.4959 2 12.2675 2C11.7311 2 11.375 2.505 11.375 3.029C11.375 3.279 11.4555 3.533 11.6366 3.74L14.4891 7ZM0 9V11H0.562625C1.02988 11 1.456 11.304 1.66163 11.784L5.25 22H15.75L19.3392 11.786C19.5431 11.305 19.971 11 20.4382 11H21V9H0Z" fill="black"/>
</g>
<defs>
<clipPath id="clip0_3_505">
<rect width="21" height="24" fill="white"/>
</clipPath>
</defs>
</svg>
