<svg width="22" height="23" viewBox="0 0 22 23" fill="none" xmlns="http://www.w3.org/2000/svg">
<g clip-path="url(#clip0_3_583)">
<path d="M4.07236 6.70833L8.27247 2.20225C8.45027 2.01249 8.68346 1.91666 8.91665 1.91666C9.46434 1.91666 9.82797 2.40062 9.82797 2.90279C9.82797 3.14237 9.74578 3.38579 9.56083 3.58416L6.64818 6.70833H4.07236ZM14.7947 6.70833H17.3705L13.1704 2.20225C12.9926 2.01249 12.7594 1.91666 12.5262 1.91666C11.9785 1.91666 11.6149 2.40062 11.6149 2.90279C11.6149 3.14237 11.6971 3.38579 11.882 3.58416L14.7947 6.70833ZM0 8.625V10.5417H0.57449C1.05159 10.5417 1.4867 10.833 1.69667 11.293L5.36071 21.0833H16.0821L19.7471 11.2949C19.9553 10.834 20.3922 10.5417 20.8693 10.5417H21.4429V8.625H0Z" fill="#C8D6C2"/>
</g>
<defs>
<clipPath id="clip0_3_583">
<rect width="21.0519" height="22.5806" fill="white" transform="scale(1.01857)"/>
</clipPath>
</defs>
</svg>
