<svg width="22" height="23" viewBox="0 0 22 23" fill="none" xmlns="http://www.w3.org/2000/svg">
<path d="M11.8493 0.323509C11.4493 -0.107805 10.7669 -0.107805 10.3668 0.323509L9.72552 1.01486C9.36581 1.40267 9.36582 2.00218 9.72552 2.38999L15.1573 8.24609C15.7575 8.89314 15.2986 9.9447 14.4161 9.9447L1.01105 9.9447C0.452661 9.9447 0 10.3974 0 10.9557L0 12.0443C0 12.6027 0.452662 13.0554 1.01105 13.0554L14.4172 13.0554C15.2998 13.0554 15.7587 14.107 15.1584 14.7541L9.72564 20.6101C9.36588 20.9979 9.36585 21.5975 9.72558 21.9853L10.3668 22.6766C10.7669 23.1079 11.4493 23.1079 11.8493 22.6766L21.5784 12.1876C21.9381 11.7998 21.9381 11.2003 21.5784 10.8125L11.8493 0.323509Z" fill="#D6CFCF"/>
<path d="M11.8493 0.323509C11.4493 -0.107805 10.7669 -0.107805 10.3668 0.323509L9.72552 1.01486C9.36581 1.40267 9.36582 2.00218 9.72552 2.38999L15.1573 8.24609C15.7575 8.89314 15.2986 9.9447 14.4161 9.9447L1.01105 9.9447C0.452661 9.9447 0 10.3974 0 10.9557L0 12.0443C0 12.6027 0.452662 13.0554 1.01105 13.0554L14.4172 13.0554C15.2998 13.0554 15.7587 14.107 15.1584 14.7541L9.72564 20.6101C9.36588 20.9979 9.36585 21.5975 9.72558 21.9853L10.3668 22.6766C10.7669 23.1079 11.4493 23.1079 11.8493 22.6766L21.5784 12.1876C21.9381 11.7998 21.9381 11.2003 21.5784 10.8125L11.8493 0.323509Z" stroke="white"/>
</svg>
