<svg width="79" height="25" viewBox="0 0 79 25" fill="none" xmlns="http://www.w3.org/2000/svg">
<g filter="url(#filter0_d_3_532)">
<rect width="79" height="25" rx="6" fill="#2C5B44"/>
</g>
<path d="M30.5369 12.608L30.5929 10.36C30.5929 10.0133 30.5849 9.728 30.5689 9.504C30.5422 9.104 30.4969 8.85333 30.4329 8.752L30.4009 8.704C30.3742 8.68267 30.3609 8.656 30.3609 8.624C30.3609 8.52267 30.4942 8.44267 30.7609 8.384C31.0276 8.32 31.2516 8.288 31.4329 8.288C31.6142 8.288 31.7049 8.33867 31.7049 8.44L31.6969 8.528C31.6222 9.056 31.5769 9.68267 31.5609 10.408C31.5449 11.128 31.5369 11.6 31.5369 11.824C31.5369 12.048 31.5449 12.2347 31.5609 12.384C31.5769 12.5333 31.5849 12.6213 31.5849 12.648C31.5902 12.6693 31.6036 12.7147 31.6249 12.784C31.6516 12.848 31.6836 12.9067 31.7209 12.96C31.8169 13.088 31.9529 13.152 32.1289 13.152C32.3049 13.152 32.4516 13.112 32.5689 13.032C32.6916 12.952 32.7822 12.8533 32.8409 12.736C32.9636 12.4853 33.0382 12.2693 33.0649 12.088L33.0809 11.968C33.1076 11.5893 33.1209 11.1413 33.1209 10.624C33.1209 10.1067 33.1182 9.768 33.1129 9.608C33.1076 9.448 33.0996 9.31733 33.0889 9.216C33.0782 9.10933 33.0676 9.016 33.0569 8.936C33.0516 8.856 33.0462 8.79467 33.0409 8.752C33.0356 8.704 33.0329 8.67733 33.0329 8.672C33.0329 8.61333 33.0622 8.56533 33.1209 8.528C33.2116 8.45867 33.3502 8.4 33.5369 8.352C33.7289 8.304 33.8996 8.28 34.0489 8.28C34.1982 8.28 34.2729 8.31467 34.2729 8.384C34.2729 8.39467 34.2596 8.48267 34.2329 8.648C34.1156 9.37333 34.0569 10.3813 34.0569 11.672C34.0569 12.6267 34.1209 13.3067 34.2489 13.712C34.2702 13.776 34.2809 13.8213 34.2809 13.848C34.2809 13.8693 34.2596 13.8987 34.2169 13.936C34.0569 14.0587 33.8436 14.12 33.5769 14.12C33.3156 14.12 33.1742 14.0533 33.1529 13.92C33.1262 13.8507 33.1102 13.712 33.1049 13.504L33.0969 13.408C33.0969 13.36 33.0862 13.336 33.0649 13.336L32.9769 13.392C32.8756 13.5627 32.7582 13.7067 32.6249 13.824C32.4916 13.936 32.3636 14.0133 32.2409 14.056C32.0649 14.12 31.8916 14.152 31.7209 14.152C31.5556 14.152 31.3876 14.1067 31.2169 14.016C31.0516 13.9307 30.9262 13.8293 30.8409 13.712C30.7609 13.5947 30.6942 13.456 30.6409 13.296C30.5716 13.0667 30.5369 12.8373 30.5369 12.608ZM34.8161 12.776C34.8268 12.2373 34.8321 11.7947 34.8321 11.448C34.8321 11.1013 34.8081 10.7707 34.7601 10.456C34.7601 10.4027 34.8134 10.376 34.9201 10.376C35.0268 10.376 35.1174 10.3893 35.1921 10.416C35.2721 10.4427 35.3281 10.472 35.3601 10.504C35.4454 10.5893 35.4934 10.632 35.5041 10.632C35.5201 10.632 35.5628 10.608 35.6321 10.56C35.8401 10.4267 36.0694 10.36 36.3201 10.36C36.5761 10.36 36.7974 10.424 36.9841 10.552C37.1761 10.68 37.3121 10.848 37.3921 11.056C37.5361 11.4133 37.6081 11.792 37.6081 12.192C37.6081 12.5867 37.5361 12.9813 37.3921 13.376C37.3121 13.5893 37.1948 13.7653 37.0401 13.904C36.8854 14.0373 36.7041 14.104 36.4961 14.104C36.0854 14.104 35.8801 13.8667 35.8801 13.392C35.8801 13.264 35.9068 13.2 35.9601 13.2C35.9708 13.2 36.0001 13.2133 36.0481 13.24C36.1014 13.2613 36.1521 13.272 36.2001 13.272C36.5788 13.272 36.7681 12.872 36.7681 12.072C36.7681 11.2667 36.5654 10.864 36.1601 10.864C36.0481 10.864 35.9521 10.8907 35.8721 10.944C35.7974 10.992 35.7494 11.04 35.7281 11.088L35.6961 11.168C35.6214 11.648 35.5841 12.5733 35.5841 13.944C35.5841 14.5627 35.5948 15.0053 35.6161 15.272C35.6428 15.544 35.6561 15.7067 35.6561 15.76C35.6561 15.8133 35.6401 15.8613 35.6081 15.904C35.5014 16.0427 35.3574 16.1653 35.1761 16.272C34.9948 16.384 34.8348 16.44 34.6961 16.44C34.6428 16.44 34.6161 16.4053 34.6161 16.336C34.7014 15.7973 34.7681 14.6107 34.8161 12.776ZM39.6017 10.408C39.6977 10.408 39.7831 10.4213 39.8577 10.448C39.9377 10.4693 39.9804 10.48 39.9857 10.48L40.0337 10.44L40.0017 9.568C39.9911 9.41867 39.9591 9.29067 39.9057 9.184C39.8524 9.07733 39.8044 9.008 39.7617 8.976L39.6897 8.936C39.6577 8.91467 39.6417 8.89067 39.6417 8.864C39.6417 8.784 39.7644 8.69067 40.0097 8.584C40.2604 8.47733 40.4551 8.424 40.5937 8.424C40.7324 8.424 40.8071 8.45333 40.8177 8.512C40.8444 8.69333 40.8577 9.04 40.8577 9.552C40.8577 10.0587 40.8444 10.5573 40.8177 11.048C40.7964 11.5387 40.7857 12.096 40.7857 12.72C40.7857 13.3387 40.8257 13.728 40.9057 13.888C40.9271 13.9253 40.9377 13.96 40.9377 13.992C40.9377 14.072 40.8231 14.112 40.5937 14.112C40.1564 14.112 39.9377 14.008 39.9377 13.8C39.9271 13.7147 39.9217 13.584 39.9217 13.408C39.9217 13.2267 39.9377 12.8933 39.9697 12.408C40.0071 11.9173 40.0257 11.5413 40.0257 11.28C40.0257 11.0133 39.8924 10.88 39.6257 10.88C39.3644 10.88 39.1644 11.0347 39.0257 11.344C38.8871 11.6533 38.8177 11.9627 38.8177 12.272C38.8177 12.928 38.9831 13.256 39.3137 13.256C39.3617 13.256 39.4071 13.248 39.4497 13.232C39.4977 13.2107 39.5271 13.2 39.5377 13.2C39.5804 13.2 39.6124 13.2267 39.6337 13.28C39.6604 13.3333 39.6737 13.3867 39.6737 13.44C39.6737 13.6213 39.6017 13.776 39.4577 13.904C39.3137 14.0267 39.1377 14.088 38.9297 14.088C38.6097 14.088 38.3671 13.9493 38.2017 13.672C38.0417 13.3893 37.9617 13.04 37.9617 12.624C37.9617 12.096 38.0871 11.6053 38.3377 11.152C38.4657 10.928 38.6391 10.7493 38.8577 10.616C39.0764 10.4773 39.3244 10.408 39.6017 10.408ZM43.9706 11.6L43.9546 12.624C43.9546 13.3333 44.0319 13.76 44.1866 13.904C44.2079 13.9253 44.2186 13.9493 44.2186 13.976C44.2186 14.056 44.0453 14.096 43.6986 14.096C43.3573 14.096 43.1759 13.9947 43.1546 13.792C43.1493 13.744 43.1466 13.6453 43.1466 13.496L43.1786 12.216C43.1786 12.1787 43.1573 12.16 43.1146 12.16C42.8586 12.16 42.6186 12.232 42.3946 12.376C42.1706 12.52 42.0586 12.704 42.0586 12.928C42.0586 13.0453 42.0906 13.144 42.1546 13.224C42.2186 13.304 42.2959 13.344 42.3866 13.344C42.4826 13.344 42.5599 13.3253 42.6186 13.288C42.6826 13.2507 42.7199 13.2293 42.7306 13.224C42.8213 13.2347 42.8666 13.3307 42.8666 13.512C42.8666 13.688 42.7839 13.832 42.6186 13.944C42.4533 14.0507 42.2799 14.104 42.0986 14.104C41.9173 14.104 41.7599 14.072 41.6266 14.008C41.4986 13.944 41.4053 13.872 41.3466 13.792C41.2879 13.712 41.2399 13.6213 41.2026 13.52C41.1653 13.3973 41.1466 13.2907 41.1466 13.2C41.1466 12.8267 41.2639 12.528 41.4986 12.304C41.7333 12.08 42.0346 11.92 42.4026 11.824C42.8879 11.728 43.1413 11.64 43.1626 11.56C43.1786 11.5013 43.1866 11.4027 43.1866 11.264C43.1866 10.9813 43.0426 10.84 42.7546 10.84C42.6319 10.84 42.5226 10.88 42.4266 10.96C42.3306 11.0347 42.2826 11.1307 42.2826 11.248L42.3306 11.44C42.3199 11.5307 42.2239 11.584 42.0426 11.6L41.9546 11.608C41.7946 11.608 41.6666 11.568 41.5706 11.488C41.4799 11.408 41.4346 11.3013 41.4346 11.168C41.4346 11.0827 41.4613 10.9893 41.5146 10.888C41.5733 10.7813 41.6453 10.696 41.7306 10.632C41.8159 10.568 41.9466 10.512 42.1226 10.464C42.3039 10.4107 42.4773 10.384 42.6426 10.384C42.8079 10.384 42.9359 10.3893 43.0266 10.4C43.1173 10.4107 43.2399 10.4373 43.3946 10.48C43.5546 10.5173 43.6853 10.592 43.7866 10.704C43.8933 10.816 43.9493 10.936 43.9546 11.064C43.9653 11.1867 43.9706 11.3653 43.9706 11.6ZM44.3348 10.88L44.3588 10.56C44.3642 10.512 44.4015 10.488 44.4708 10.488H44.7508L44.7188 9.848V9.816C44.7188 9.69333 44.8122 9.576 44.9988 9.464C45.1855 9.352 45.3562 9.296 45.5108 9.296C45.5588 9.296 45.5828 9.31733 45.5828 9.36V9.368C45.5615 9.512 45.5402 9.88267 45.5188 10.48C45.7535 10.48 45.9028 10.4747 45.9668 10.464C46.0308 10.4533 46.0655 10.448 46.0708 10.448C46.1082 10.448 46.1268 10.48 46.1268 10.544C46.1268 10.608 46.0975 10.6907 46.0388 10.792C45.9802 10.888 45.9162 10.9387 45.8468 10.944H45.5108C45.5055 11.1253 45.5028 11.432 45.5028 11.864C45.5028 12.2907 45.5055 12.6427 45.5108 12.92C45.5215 13.1973 45.5322 13.408 45.5428 13.552C45.5535 13.6907 45.5642 13.8027 45.5748 13.888C45.5908 13.9733 45.6015 14.0347 45.6068 14.072C45.6175 14.1093 45.6228 14.1333 45.6228 14.144C45.6228 14.1973 45.5882 14.2267 45.5188 14.232C45.3108 14.232 45.1028 14.2027 44.8948 14.144C44.6922 14.0853 44.5908 13.984 44.5908 13.84C44.7028 12.944 44.7588 11.9813 44.7588 10.952C44.6148 10.952 44.5055 10.9573 44.4308 10.968H44.4228C44.3748 10.968 44.3455 10.9387 44.3348 10.88ZM46.9258 11.968L46.9338 12.168C46.9338 12.2 46.9551 12.216 46.9978 12.216C47.1684 12.2 47.3178 12.1573 47.4458 12.088C47.5738 12.0133 47.6698 11.9307 47.7338 11.84C47.8618 11.6427 47.9311 11.472 47.9418 11.328L47.9498 11.232C47.9498 10.944 47.8351 10.8 47.6058 10.8C47.4351 10.8 47.2964 10.8747 47.1898 11.024C47.0138 11.2587 46.9258 11.5733 46.9258 11.968ZM48.6698 13.032C48.6698 13.2347 48.6271 13.4133 48.5418 13.568C48.4618 13.7173 48.3684 13.8293 48.2618 13.904C48.1604 13.9733 48.0404 14.0293 47.9018 14.072C47.7258 14.1253 47.5578 14.152 47.3978 14.152C46.9498 14.152 46.6191 13.984 46.4058 13.648C46.1924 13.312 46.0858 12.8853 46.0858 12.368C46.0858 11.8453 46.2164 11.3813 46.4778 10.976C46.7444 10.5707 47.1418 10.368 47.6698 10.368C48.1498 10.368 48.4751 10.536 48.6458 10.872C48.7151 11 48.7498 11.1227 48.7498 11.24C48.7498 11.352 48.7444 11.4427 48.7338 11.512C48.7231 11.576 48.6858 11.6747 48.6218 11.808C48.5578 11.9413 48.4724 12.0613 48.3658 12.168C48.2591 12.2747 48.0911 12.376 47.8618 12.472C47.6324 12.568 47.3631 12.632 47.0538 12.664C47.0111 12.664 46.9898 12.6827 46.9898 12.72C46.9898 12.768 47.0058 12.84 47.0378 12.936C47.0751 13.0267 47.1151 13.104 47.1578 13.168C47.2751 13.3173 47.4484 13.392 47.6778 13.392C47.9071 13.392 48.1018 13.3173 48.2618 13.168C48.3471 13.088 48.4164 12.9893 48.4698 12.872C48.4911 12.8293 48.5178 12.808 48.5498 12.808C48.5871 12.808 48.6164 12.8373 48.6378 12.896C48.6591 12.9547 48.6698 13 48.6698 13.032Z" fill="#C8D6C2"/>
<defs>
<filter id="filter0_d_3_532" x="-4" y="0" width="87" height="33" filterUnits="userSpaceOnUse" color-interpolation-filters="sRGB">
<feFlood flood-opacity="0" result="BackgroundImageFix"/>
<feColorMatrix in="SourceAlpha" type="matrix" values="0 0 0 0 0 0 0 0 0 0 0 0 0 0 0 0 0 0 127 0" result="hardAlpha"/>
<feOffset dy="4"/>
<feGaussianBlur stdDeviation="2"/>
<feColorMatrix type="matrix" values="0 0 0 0 0 0 0 0 0 0 0 0 0 0 0 0 0 0 0.25 0"/>
<feBlend mode="normal" in2="BackgroundImageFix" result="effect1_dropShadow_3_532"/>
<feBlend mode="normal" in="SourceGraphic" in2="effect1_dropShadow_3_532" result="shape"/>
</filter>
</defs>
</svg>
