<svg width="48" height="48" viewBox="0 0 48 48" fill="none" xmlns="http://www.w3.org/2000/svg">
<path d="M25 10.5417C25 9.60236 25.3786 8.70152 26.0526 8.03733C26.7265 7.37314 27.6406 7 28.5938 7H44.4062C45.3594 7 46.2735 7.37314 46.9474 8.03733C47.6214 8.70152 48 9.60236 48 10.5417V20.4583C48 21.3976 47.6214 22.2985 46.9474 22.9627C46.2735 23.6269 45.3594 24 44.4062 24H28.5938C27.6406 24 26.7265 23.6269 26.0526 22.9627C25.3786 22.2985 25 21.3976 25 20.4583V10.5417ZM28.5938 8.41667C28.0219 8.41667 27.4734 8.64055 27.0691 9.03906C26.6647 9.43758 26.4375 9.97808 26.4375 10.5417V12.3833H46.5625V10.5417C46.5625 9.97808 46.3353 9.43758 45.9309 9.03906C45.5266 8.64055 44.9781 8.41667 44.4062 8.41667H28.5938ZM26.4375 20.4583C26.4375 21.0219 26.6647 21.5624 27.0691 21.9609C27.4734 22.3594 28.0219 22.5833 28.5938 22.5833H44.4062C44.9781 22.5833 45.5266 22.3594 45.9309 21.9609C46.3353 21.5624 46.5625 21.0219 46.5625 20.4583V13.8H26.4375V20.4583ZM40.6687 18.6167C40.4781 18.6167 40.2953 18.6913 40.1605 18.8241C40.0257 18.957 39.95 19.1371 39.95 19.325C39.95 19.5129 40.0257 19.693 40.1605 19.8259C40.2953 19.9587 40.4781 20.0333 40.6687 20.0333H43.8312C44.0219 20.0333 44.2047 19.9587 44.3395 19.8259C44.4743 19.693 44.55 19.5129 44.55 19.325C44.55 19.1371 44.4743 18.957 44.3395 18.8241C44.2047 18.6913 44.0219 18.6167 43.8312 18.6167H40.6687Z" fill="#C8D6C2"/>
</svg>
