<svg width="77" height="46" viewBox="0 0 77 46" fill="none" xmlns="http://www.w3.org/2000/svg">
<path d="M50.7783 24.0177C50.7783 25.9152 49.7837 27.3355 48.3047 27.3355C47.3646 27.3355 46.8032 27.0362 46.415 26.6663L46.3925 21.4284C46.8096 21.0247 47.3871 20.731 48.3047 20.731C49.7677 20.7282 50.7783 22.1711 50.7783 24.0177ZM61.5583 20.4797C60.5573 20.4797 59.444 21.1461 59.444 22.733H63.586C63.586 21.1461 62.5432 20.4797 61.5583 20.4797ZM77 5.64724V39.5307C77 42.6479 74.1253 45.1779 70.5833 45.1779H6.41667C2.87467 45.1779 0 42.6479 0 39.5307V5.64724C0 2.52996 2.87467 0 6.41667 0H70.5833C74.1253 0 77 2.52996 77 5.64724ZM19.7986 26.463C19.7986 22.2586 13.6739 23.0125 13.6739 21.4256C13.6739 20.875 14.1937 20.6604 15.0342 20.6604C16.2534 20.6604 17.7998 20.988 19.019 21.5668V18.2462C17.6907 17.7803 16.3657 17.6024 15.0375 17.6024C11.7906 17.6053 9.625 19.099 9.625 21.595C9.625 25.4973 15.7144 24.8648 15.7144 26.5477C15.7144 27.1999 15.0695 27.4089 14.1776 27.4089C12.8494 27.4089 11.1393 26.926 9.79504 26.2822V29.648C11.2837 30.2127 12.7948 30.4471 14.1744 30.4471C17.5047 30.4499 19.7986 29.0014 19.7986 26.463ZM27.5692 17.8396H24.5245L24.5213 14.7788L20.6103 15.5101L20.5943 26.8216C20.5943 28.9082 22.3781 30.4499 24.7555 30.4499C26.0645 30.4499 27.0334 30.241 27.566 29.984V27.1152C27.0527 27.2959 24.5245 27.9425 24.5245 25.8644V20.8496H27.566V17.8396H27.5692ZM35.898 17.8396C35.3655 17.6702 33.4918 17.3624 32.555 18.8815L32.3047 17.8396H28.8429V30.1986H32.8469V21.8209C33.7934 20.7254 35.3911 20.9371 35.9012 21.0811V17.8396H35.898ZM40.8838 17.8396H36.8637V30.1986H40.8838V17.8396ZM40.8838 13.1411L36.8637 13.8922V16.7638L40.8838 16.0127V13.1411ZM54.7245 23.9386C54.7245 19.8331 52.0745 17.6024 49.2607 17.6053C47.6919 17.6053 46.678 18.2547 46.123 18.7121L45.9145 17.8396H42.3885V34.2957L46.3957 33.5474L46.4053 29.5576C46.9796 29.9275 47.8362 30.4499 49.2383 30.4499C52.1033 30.4499 54.7245 28.4197 54.7245 23.9386ZM67.375 24.0657C67.375 20.4543 65.389 17.6053 61.584 17.6053C57.7725 17.6053 55.4528 20.4571 55.4528 24.0459C55.4528 28.2983 58.1863 30.4471 62.0877 30.4471C64.003 30.4471 65.4404 30.0631 66.528 29.5322V26.6917C65.4372 27.1773 64.1827 27.471 62.5914 27.471C61.0289 27.471 59.6557 26.9853 59.4761 25.3307H67.3172L67.375 24.0657Z" fill="#2C5B44"/>
</svg>
