<svg width="25" height="27" viewBox="0 0 25 27" fill="none" xmlns="http://www.w3.org/2000/svg">
<g clip-path="url(#clip0_191_56)">
<path d="M14.9125 9.85586C14.7691 9.43323 14.5032 9.06729 14.1513 8.8085C13.7995 8.54971 13.3792 8.41083 12.9482 8.411H11.3357C10.8757 8.40849 10.4311 8.58348 10.0879 8.90213C9.74478 9.22077 9.52741 9.66043 9.47787 10.1361C9.42834 10.6118 9.55016 11.0896 9.81977 11.4773C10.0894 11.8649 10.4876 12.1349 10.9375 12.2349L13.3929 12.792C13.8949 12.9063 14.3387 13.2095 14.6388 13.6434C14.939 14.0773 15.0744 14.6112 15.019 15.1426C14.9636 15.674 14.7214 16.1654 14.3388 16.5223C13.9563 16.8793 13.4604 17.0766 12.9464 17.0764H11.5589C10.6518 17.0764 9.88037 16.4747 9.59466 15.6334M12.2536 8.411V6.24371M12.2536 19.2437V17.0783M3.56787 25.0677V20.4249H8.03216" stroke="#FBEDEA" stroke-linecap="round" stroke-linejoin="round"/>
<path d="M23.9071 10.7788C24.3811 13.4071 24.0027 16.1247 22.831 18.505C21.6594 20.8854 19.761 22.7937 17.4337 23.9306C15.1064 25.0675 12.482 25.3685 9.97237 24.7864C7.46278 24.2044 5.21007 22.7721 3.5678 20.7146M1.0928 15.2211C0.618735 12.5929 0.99722 9.87532 2.16885 7.49497C3.34048 5.11462 5.23893 3.20625 7.56622 2.06936C9.89352 0.932483 12.5179 0.631456 15.0275 1.21353C17.5371 1.79561 19.7898 3.22783 21.4321 5.28542" stroke="#FBEDEA" stroke-linecap="round" stroke-linejoin="round"/>
<path d="M21.4321 0.932281V5.57514H16.9678" stroke="#FBEDEA" stroke-linecap="round" stroke-linejoin="round"/>
</g>
<defs>
<clipPath id="clip0_191_56">
<rect width="25" height="26" fill="white"/>
</clipPath>
</defs>
</svg>
