<svg width="15" height="16" viewBox="0 0 15 16" fill="none" xmlns="http://www.w3.org/2000/svg">
<g clip-path="url(#clip0_191_38)">
<path d="M13.8444 10.0511C13.6381 10.0511 13.4708 10.2295 13.4708 10.4496V13.9876C13.4701 14.6476 12.9688 15.1825 12.3501 15.1831H1.86789C1.24915 15.1825 0.747885 14.6476 0.747155 13.9876V3.60359C0.747885 2.94376 1.24915 2.40892 1.86789 2.40814H5.18485C5.39119 2.40814 5.55843 2.22976 5.55843 2.00966C5.55843 1.78971 5.39119 1.61118 5.18485 1.61118H1.86789C0.836756 1.61242 0.00116743 2.50371 0 3.60359V13.9878C0.00116743 15.0877 0.836756 15.979 1.86789 15.9802H12.3501C13.3812 15.979 14.2168 15.0877 14.218 13.9878V10.4496C14.218 10.2295 14.0508 10.0511 13.8444 10.0511Z" fill="#C4C4C4"/>
<path d="M14.07 0.585896C13.4135 -0.114407 12.3491 -0.114407 11.6926 0.585896L5.0277 7.69508C4.98203 7.7438 4.94905 7.8042 4.93183 7.87051L4.05538 11.2456C4.01934 11.384 4.05596 11.5322 4.15111 11.6338C4.2464 11.7353 4.38533 11.7744 4.51506 11.7361L7.67923 10.8011C7.7414 10.7827 7.79802 10.7475 7.84369 10.6988L14.5084 3.58946C15.1639 2.88869 15.1639 1.75426 14.5084 1.05349L14.07 0.585896ZM5.8417 7.95409L11.2964 2.13562L13.0555 4.01207L7.60072 9.83054L5.8417 7.95409ZM5.4903 8.70623L6.89574 10.2055L4.95168 10.7801L5.4903 8.70623ZM13.9801 3.02598L13.584 3.44859L11.8246 1.57199L12.221 1.14938C12.5857 0.760388 13.177 0.760388 13.5416 1.14938L13.9801 1.61697C14.3442 2.00643 14.3442 2.63668 13.9801 3.02598Z" fill="#C4C4C4"/>
</g>
<defs>
<clipPath id="clip0_191_38">
<rect width="15" height="16" fill="white"/>
</clipPath>
</defs>
</svg>
