<svg width="25" height="27" viewBox="0 0 25 27" fill="none" xmlns="http://www.w3.org/2000/svg">
<path d="M11.6906 17.9336L7.77604 27L6.76875 24.0097L4 25.0987L7.66354 16.6151C8.36979 16.8581 8.84792 16.7974 9.58958 16.7974C10.3646 17.3745 10.7062 17.7469 11.6906 17.9336ZM15.0781 16.7985C14.3094 17.3678 13.9854 17.7334 13.001 17.928L16.9167 27L17.924 24.0097L20.6667 25.0987L17.026 16.6061C16.3115 16.8559 15.8323 16.7985 15.0781 16.7985ZM12.3333 3.375C10.0365 3.375 8.16667 5.39437 8.16667 7.875C8.16667 10.3556 10.0365 12.375 12.3333 12.375C14.6312 12.375 16.5 10.3568 16.5 7.875C16.5 5.39325 14.6312 3.375 12.3333 3.375ZM19.5479 9.31275C19.601 9.477 19.625 9.64575 19.625 9.81337C19.625 10.3185 19.3937 10.8067 18.9844 11.1139C17.676 12.0926 17.849 11.8463 17.3573 13.4392C17.151 14.1041 16.5552 14.553 15.8844 14.553H15.8802C14.2667 14.5474 14.5479 14.454 13.2469 15.4406C12.974 15.6465 12.6542 15.75 12.3333 15.75C12.0125 15.75 11.6927 15.6465 11.4208 15.4406C10.1198 14.4529 10.4 14.5474 8.7875 14.553H8.78333C8.11146 14.553 7.51667 14.1041 7.31146 13.4392C6.81875 11.8451 6.9875 12.0915 5.68437 11.1139C5.27292 10.8056 5.04167 10.3174 5.04167 9.81225C5.04167 9.64575 5.06667 9.477 5.11875 9.31275C5.62187 7.72537 5.62292 8.03137 5.11875 6.43837C5.06667 6.273 5.04167 6.10425 5.04167 5.93775C5.04167 5.4315 5.27292 4.94437 5.68333 4.63612C6.98646 3.65962 6.81771 3.90712 7.31042 2.31075C7.51562 1.64587 8.11146 1.197 8.78229 1.197H8.78646C10.3958 1.20263 10.1104 1.30387 11.4198 0.30825C11.6927 0.1035 12.0125 0 12.3333 0C12.6542 0 12.974 0.102375 13.2458 0.30825C14.5469 1.296 14.2667 1.20263 15.8792 1.197H15.8833C16.5552 1.197 17.15 1.64587 17.3562 2.31075C17.849 3.90375 17.676 3.65737 18.9833 4.63612C19.3937 4.94437 19.625 5.4315 19.625 5.93663C19.625 6.10313 19.601 6.273 19.5479 6.43725C19.0448 8.02462 19.0427 7.71862 19.5479 9.31275ZM17.5417 7.875C17.5417 4.76888 15.2104 2.25 12.3333 2.25C9.45729 2.25 7.125 4.76888 7.125 7.875C7.125 10.9811 9.45729 13.5 12.3333 13.5C15.2104 13.5 17.5417 10.9823 17.5417 7.875Z" fill="white"/>
</svg>
