<svg width="20" height="20" viewBox="0 0 20 20" fill="none" xmlns="http://www.w3.org/2000/svg">
<g clip-path="url(#clip0_270_35)">
<path d="M16.8799 12.9289C15.8029 11.8398 14.521 11.0335 13.1224 10.5454C14.6204 9.50199 15.6045 7.75578 15.6045 5.78125C15.6045 2.59348 13.0401 0 9.888 0C6.73593 0 4.1715 2.59348 4.1715 5.78125C4.1715 7.75578 5.15563 9.50199 6.65362 10.5454C5.25501 11.0335 3.97312 11.8398 2.89614 12.9289C1.02855 14.8177 0 17.3289 0 20H1.545C1.545 15.3475 5.28765 11.5625 9.888 11.5625C14.4884 11.5625 18.231 15.3475 18.231 20H19.776C19.776 17.3289 18.7475 14.8177 16.8799 12.9289ZM9.888 10C7.58784 10 5.7165 8.1075 5.7165 5.78125C5.7165 3.455 7.58784 1.5625 9.888 1.5625C12.1882 1.5625 14.0595 3.455 14.0595 5.78125C14.0595 8.1075 12.1882 10 9.888 10Z" fill="white"/>
</g>
<defs>
<clipPath id="clip0_270_35">
<rect width="19.776" height="20" fill="white"/>
</clipPath>
</defs>
</svg>
