<svg width="22" height="23" viewBox="0 0 22 23" fill="none" xmlns="http://www.w3.org/2000/svg">
<g clip-path="url(#clip0_270_31)">
<path d="M4.07234 6.70831L8.27245 2.20224C8.45025 2.01249 8.68344 1.91666 8.91663 1.91666C9.46431 1.91666 9.82795 2.40061 9.82795 2.90278C9.82795 3.14236 9.74575 3.38578 9.56081 3.58415L6.64816 6.70831H4.07234ZM14.7946 6.70831H17.3704L13.1703 2.20224C12.9925 2.01249 12.7594 1.91666 12.5262 1.91666C11.9785 1.91666 11.6148 2.40061 11.6148 2.90278C11.6148 3.14236 11.697 3.38578 11.882 3.58415L14.7946 6.70831ZM0 8.62498V10.5416H0.574488C1.05159 10.5416 1.4867 10.833 1.69666 11.293L5.3607 21.0833H16.0821L19.747 11.2949C19.9552 10.8339 20.3921 10.5416 20.8692 10.5416H21.4428V8.62498H0Z" fill="white"/>
</g>
<defs>
<clipPath id="clip0_270_31">
<rect width="21.0519" height="22.5806" fill="white" transform="scale(1.01857)"/>
</clipPath>
</defs>
</svg>
